<svg width="22" height="22" viewBox="0 0 22 22" fill="none" xmlns="http://www.w3.org/2000/svg">
<path d="M17.1142 1.83333H15.3725C13.3742 1.83333 12.32 2.88749 12.32 4.88583V6.62749C12.32 8.62583 13.3742 9.68 15.3725 9.68H17.1142C19.1125 9.68 20.1667 8.62583 20.1667 6.62749V4.88583C20.1667 2.88749 19.1125 1.83333 17.1142 1.83333Z" fill="#4B5563"/>
<path d="M6.63668 12.3108H4.89501C2.88751 12.3108 1.83334 13.365 1.83334 15.3633V17.105C1.83334 19.1125 2.88751 20.1667 4.88584 20.1667H6.62751C8.62584 20.1667 9.68001 19.1125 9.68001 17.1142V15.3725C9.68918 13.365 8.63501 12.3108 6.63668 12.3108Z" fill="#4B5563"/>
<path d="M5.76584 9.69833C7.9377 9.69833 9.69834 7.93769 9.69834 5.76583C9.69834 3.59397 7.9377 1.83333 5.76584 1.83333C3.59398 1.83333 1.83334 3.59397 1.83334 5.76583C1.83334 7.93769 3.59398 9.69833 5.76584 9.69833Z" fill="#4B5563"/>
<path d="M16.2342 20.1667C18.406 20.1667 20.1667 18.406 20.1667 16.2342C20.1667 14.0623 18.406 12.3017 16.2342 12.3017C14.0623 12.3017 12.3017 14.0623 12.3017 16.2342C12.3017 18.406 14.0623 20.1667 16.2342 20.1667Z" fill="#4B5563"/>
</svg>
