<svg width="20" height="20" viewBox="0 0 20 20" fill="none" xmlns="http://www.w3.org/2000/svg">
<path d="M7.50002 9.16666C7.3352 9.16666 7.17409 9.21553 7.03705 9.3071C6.9 9.39867 6.79319 9.52882 6.73012 9.68109C6.66705 9.83336 6.65055 10.0009 6.6827 10.1626C6.71485 10.3242 6.79422 10.4727 6.91077 10.5892C7.02731 10.7058 7.17579 10.7852 7.33745 10.8173C7.4991 10.8495 7.66665 10.833 7.81892 10.7699C7.9712 10.7068 8.10134 10.6 8.19291 10.463C8.28448 10.3259 8.33335 10.1648 8.33335 9.99999C8.33335 9.77898 8.24556 9.56702 8.08928 9.41073C7.933 9.25445 7.72103 9.16666 7.50002 9.16666ZM7.50002 12.5C7.3352 12.5 7.17409 12.5489 7.03705 12.6404C6.9 12.732 6.79319 12.8621 6.73012 13.0144C6.66705 13.1667 6.65055 13.3342 6.6827 13.4959C6.71485 13.6576 6.79422 13.806 6.91077 13.9226C7.02731 14.0391 7.17579 14.1185 7.33745 14.1506C7.4991 14.1828 7.66665 14.1663 7.81892 14.1032C7.9712 14.0402 8.10134 13.9333 8.19291 13.7963C8.28448 13.6593 8.33335 13.4981 8.33335 13.3333C8.33335 13.1123 8.24556 12.9003 8.08928 12.7441C7.933 12.5878 7.72103 12.5 7.50002 12.5ZM7.50002 5.83332C7.3352 5.83332 7.17409 5.8822 7.03705 5.97377C6.9 6.06533 6.79319 6.19548 6.73012 6.34775C6.66705 6.50003 6.65055 6.66758 6.6827 6.82923C6.71485 6.99088 6.79422 7.13937 6.91077 7.25591C7.02731 7.37246 7.17579 7.45182 7.33745 7.48398C7.4991 7.51613 7.66665 7.49963 7.81892 7.43656C7.9712 7.37348 8.10134 7.26667 8.19291 7.12963C8.28448 6.99259 8.33335 6.83147 8.33335 6.66666C8.33335 6.44564 8.24556 6.23368 8.08928 6.0774C7.933 5.92112 7.72103 5.83332 7.50002 5.83332ZM12.5 5.83332C12.3352 5.83332 12.1741 5.8822 12.037 5.97377C11.9 6.06533 11.7932 6.19548 11.7301 6.34775C11.667 6.50003 11.6505 6.66758 11.6827 6.82923C11.7149 6.99088 11.7942 7.13937 11.9108 7.25591C12.0273 7.37246 12.1758 7.45182 12.3374 7.48398C12.4991 7.51613 12.6667 7.49963 12.8189 7.43656C12.9712 7.37348 13.1013 7.26667 13.1929 7.12963C13.2845 6.99259 13.3334 6.83147 13.3334 6.66666C13.3334 6.44564 13.2456 6.23368 13.0893 6.0774C12.933 5.92112 12.721 5.83332 12.5 5.83332ZM14.1667 1.66666H5.83335C4.72829 1.66666 3.66848 2.10564 2.88708 2.88704C2.10567 3.66845 1.66669 4.72825 1.66669 5.83332V14.1667C1.66669 15.2717 2.10567 16.3315 2.88708 17.1129C3.66848 17.8943 4.72829 18.3333 5.83335 18.3333H14.1667C15.2718 18.3333 16.3316 17.8943 17.113 17.1129C17.8944 16.3315 18.3334 15.2717 18.3334 14.1667V5.83332C18.3334 4.72825 17.8944 3.66845 17.113 2.88704C16.3316 2.10564 15.2718 1.66666 14.1667 1.66666ZM16.6667 14.1667C16.6667 14.8297 16.4033 15.4656 15.9345 15.9344C15.4656 16.4033 14.8297 16.6667 14.1667 16.6667H5.83335C5.17031 16.6667 4.53443 16.4033 4.06559 15.9344C3.59675 15.4656 3.33335 14.8297 3.33335 14.1667V5.83332C3.33335 5.17028 3.59675 4.5344 4.06559 4.06556C4.53443 3.59672 5.17031 3.33332 5.83335 3.33332H14.1667C14.8297 3.33332 15.4656 3.59672 15.9345 4.06556C16.4033 4.5344 16.6667 5.17028 16.6667 5.83332V14.1667ZM12.5 9.16666C12.3352 9.16666 12.1741 9.21553 12.037 9.3071C11.9 9.39867 11.7932 9.52882 11.7301 9.68109C11.667 9.83336 11.6505 10.0009 11.6827 10.1626C11.7149 10.3242 11.7942 10.4727 11.9108 10.5892C12.0273 10.7058 12.1758 10.7852 12.3374 10.8173C12.4991 10.8495 12.6667 10.833 12.8189 10.7699C12.9712 10.7068 13.1013 10.6 13.1929 10.463C13.2845 10.3259 13.3334 10.1648 13.3334 9.99999C13.3334 9.77898 13.2456 9.56702 13.0893 9.41073C12.933 9.25445 12.721 9.16666 12.5 9.16666ZM12.5 12.5C12.3352 12.5 12.1741 12.5489 12.037 12.6404C11.9 12.732 11.7932 12.8621 11.7301 13.0144C11.667 13.1667 11.6505 13.3342 11.6827 13.4959C11.7149 13.6576 11.7942 13.806 11.9108 13.9226C12.0273 14.0391 12.1758 14.1185 12.3374 14.1506C12.4991 14.1828 12.6667 14.1663 12.8189 14.1032C12.9712 14.0402 13.1013 13.9333 13.1929 13.7963C13.2845 13.6593 13.3334 13.4981 13.3334 13.3333C13.3334 13.1123 13.2456 12.9003 13.0893 12.7441C12.933 12.5878 12.721 12.5 12.5 12.5Z" fill="#4B5563"/>
</svg>
