<svg width="387" height="255" viewBox="0 0 387 255" fill="none" xmlns="http://www.w3.org/2000/svg">
<g filter="url(#filter0_dd_1_204)">
<rect x="16" y="8" width="355" height="223" rx="12" fill="white"/>
</g>
<path d="M40.5781 32.348C40.5099 31.7429 40.2287 31.2741 39.7344 30.9418C39.2401 30.6051 38.6179 30.4368 37.8679 30.4368C37.331 30.4368 36.8665 30.522 36.4744 30.6925C36.0824 30.8587 35.7777 31.0888 35.5604 31.3828C35.3473 31.6726 35.2408 32.0028 35.2408 32.3736C35.2408 32.6847 35.3132 32.9531 35.4581 33.179C35.6072 33.4048 35.8011 33.5945 36.0398 33.7479C36.2827 33.897 36.5426 34.0227 36.8196 34.125C37.0966 34.223 37.3629 34.304 37.6186 34.3679L38.897 34.7003C39.3146 34.8026 39.7429 34.9411 40.1818 35.1158C40.6207 35.2905 41.0277 35.5206 41.4027 35.8061C41.7777 36.0916 42.0803 36.4453 42.3104 36.8672C42.5447 37.2891 42.6619 37.794 42.6619 38.3821C42.6619 39.1236 42.4702 39.782 42.0866 40.3572C41.7074 40.9325 41.1555 41.3864 40.4311 41.7188C39.7109 42.0511 38.8395 42.2173 37.8168 42.2173C36.8366 42.2173 35.9886 42.0618 35.2727 41.7507C34.5568 41.4396 33.9964 40.9986 33.5916 40.4276C33.1868 39.8523 32.9631 39.1705 32.9205 38.3821H34.902C34.9403 38.8551 35.0938 39.2493 35.3622 39.5646C35.6349 39.8757 35.9822 40.108 36.4041 40.2614C36.8303 40.4105 37.2969 40.4851 37.804 40.4851C38.3622 40.4851 38.8587 40.3977 39.2933 40.223C39.7322 40.044 40.0774 39.7969 40.3288 39.4815C40.5803 39.1619 40.706 38.7891 40.706 38.3629C40.706 37.9751 40.5952 37.6577 40.3736 37.4105C40.1563 37.1634 39.8601 36.9588 39.4851 36.7969C39.1143 36.6349 38.6946 36.4922 38.2259 36.3686L36.679 35.9467C35.6307 35.6612 34.7997 35.2415 34.1861 34.6875C33.5767 34.1335 33.272 33.4006 33.272 32.4886C33.272 31.7344 33.4766 31.076 33.8857 30.5135C34.2947 29.951 34.8487 29.5142 35.5476 29.2031C36.2464 28.8878 37.0348 28.7301 37.9126 28.7301C38.799 28.7301 39.581 28.8857 40.2585 29.1967C40.9403 29.5078 41.4773 29.9361 41.8693 30.4815C42.2614 31.0227 42.4659 31.6449 42.483 32.348H40.5781ZM49.4519 32.1818V33.7159H44.089V32.1818H49.4519ZM45.5272 29.8295H47.4384V39.1172C47.4384 39.4879 47.4938 39.767 47.6046 39.9545C47.7154 40.1378 47.8581 40.2635 48.0328 40.3317C48.2118 40.3956 48.4057 40.4276 48.6145 40.4276C48.7679 40.4276 48.9022 40.4169 49.0172 40.3956C49.1323 40.3743 49.2218 40.3572 49.2857 40.3445L49.6309 41.9233C49.5201 41.9659 49.3624 42.0085 49.1578 42.0511C48.9533 42.098 48.6976 42.1236 48.3908 42.1278C47.888 42.1364 47.4192 42.0469 46.9846 41.8594C46.5499 41.6719 46.1983 41.3821 45.9299 40.9901C45.6614 40.598 45.5272 40.1058 45.5272 39.5135V29.8295ZM55.5962 42.1982C54.6758 42.1982 53.8725 41.9872 53.1864 41.5653C52.5004 41.1435 51.9677 40.5533 51.5884 39.7947C51.2092 39.0362 51.0195 38.1499 51.0195 37.1357C51.0195 36.1172 51.2092 35.2266 51.5884 34.4638C51.9677 33.701 52.5004 33.1087 53.1864 32.6868C53.8725 32.2649 54.6758 32.054 55.5962 32.054C56.5167 32.054 57.32 32.2649 58.006 32.6868C58.6921 33.1087 59.2248 33.701 59.604 34.4638C59.9833 35.2266 60.1729 36.1172 60.1729 37.1357C60.1729 38.1499 59.9833 39.0362 59.604 39.7947C59.2248 40.5533 58.6921 41.1435 58.006 41.5653C57.32 41.9872 56.5167 42.1982 55.5962 42.1982ZM55.6026 40.5938C56.1992 40.5938 56.6935 40.4361 57.0856 40.1207C57.4776 39.8054 57.7674 39.3857 57.9549 38.8615C58.1467 38.3374 58.2425 37.7599 58.2425 37.1293C58.2425 36.5028 58.1467 35.9276 57.9549 35.4034C57.7674 34.875 57.4776 34.451 57.0856 34.1314C56.6935 33.8118 56.1992 33.652 55.6026 33.652C55.0018 33.652 54.5032 33.8118 54.1069 34.1314C53.7148 34.451 53.4229 34.875 53.2312 35.4034C53.0437 35.9276 52.9499 36.5028 52.9499 37.1293C52.9499 37.7599 53.0437 38.3374 53.2312 38.8615C53.4229 39.3857 53.7148 39.8054 54.1069 40.1207C54.5032 40.4361 55.0018 40.5938 55.6026 40.5938ZM62.3063 42V32.1818H64.1536V33.7415H64.2559C64.4348 33.2131 64.7502 32.7976 65.2019 32.495C65.6578 32.1882 66.1735 32.0348 66.7488 32.0348C66.8681 32.0348 67.0087 32.0391 67.1706 32.0476C67.3368 32.0561 67.4668 32.0668 67.5605 32.0795V33.9077C67.4838 33.8864 67.3475 33.8629 67.1515 33.8374C66.9554 33.8075 66.7594 33.7926 66.5634 33.7926C66.1117 33.7926 65.709 33.8885 65.3553 34.0803C65.0059 34.2678 64.7289 34.5298 64.5243 34.8665C64.3198 35.1989 64.2175 35.5781 64.2175 36.0043V42H62.3063ZM73.0945 42.1982C72.1271 42.1982 71.294 41.9915 70.5952 41.5781C69.9006 41.1605 69.3636 40.5746 68.9844 39.8203C68.6094 39.0618 68.4219 38.1733 68.4219 37.1548C68.4219 36.1491 68.6094 35.2628 68.9844 34.4957C69.3636 33.7287 69.892 33.13 70.5696 32.6996C71.2514 32.2692 72.0483 32.054 72.9602 32.054C73.5142 32.054 74.0511 32.1456 74.571 32.3288C75.0909 32.5121 75.5575 32.7997 75.9709 33.1918C76.3842 33.5838 76.7102 34.093 76.9489 34.7195C77.1875 35.3416 77.3068 36.098 77.3068 36.9886V37.6662H69.5021V36.2344H75.4339C75.4339 35.7315 75.3317 35.2862 75.1271 34.8984C74.9226 34.5064 74.6349 34.1974 74.2642 33.9716C73.8977 33.7457 73.4673 33.6328 72.973 33.6328C72.4361 33.6328 71.9673 33.7649 71.5668 34.0291C71.1705 34.2891 70.8636 34.63 70.6463 35.0518C70.4332 35.4695 70.3267 35.9233 70.3267 36.4134V37.532C70.3267 38.1882 70.4418 38.7464 70.6719 39.2067C70.9062 39.6669 71.2322 40.0185 71.6499 40.2614C72.0675 40.5 72.5554 40.6193 73.1136 40.6193C73.4759 40.6193 73.8061 40.5682 74.1044 40.4659C74.4027 40.3594 74.6605 40.2017 74.8778 39.9929C75.0952 39.7841 75.2614 39.5263 75.3764 39.2195L77.1854 39.5455C77.0405 40.0781 76.7805 40.5447 76.4055 40.9453C76.0348 41.3416 75.5682 41.6506 75.0057 41.8722C74.4474 42.0895 73.8104 42.1982 73.0945 42.1982ZM85.4886 28.9091L89.1321 39.571H89.2791L92.9226 28.9091H95.0575L90.3466 42H88.0646L83.3537 28.9091H85.4886ZM96.7946 42V32.1818H98.7058V42H96.7946ZM97.7598 30.6669C97.4274 30.6669 97.1419 30.5561 96.9032 30.3345C96.6689 30.1087 96.5517 29.8402 96.5517 29.5291C96.5517 29.2138 96.6689 28.9453 96.9032 28.7237C97.1419 28.4979 97.4274 28.3849 97.7598 28.3849C98.0922 28.3849 98.3755 28.4979 98.6099 28.7237C98.8485 28.9453 98.9679 29.2138 98.9679 29.5291C98.9679 29.8402 98.8485 30.1087 98.6099 30.3345C98.3755 30.5561 98.0922 30.6669 97.7598 30.6669ZM105.509 42.1982C104.541 42.1982 103.708 41.9915 103.009 41.5781C102.315 41.1605 101.778 40.5746 101.398 39.8203C101.023 39.0618 100.836 38.1733 100.836 37.1548C100.836 36.1491 101.023 35.2628 101.398 34.4957C101.778 33.7287 102.306 33.13 102.984 32.6996C103.665 32.2692 104.462 32.054 105.374 32.054C105.928 32.054 106.465 32.1456 106.985 32.3288C107.505 32.5121 107.972 32.7997 108.385 33.1918C108.798 33.5838 109.124 34.093 109.363 34.7195C109.602 35.3416 109.721 36.098 109.721 36.9886V37.6662H101.916V36.2344H107.848C107.848 35.7315 107.746 35.2862 107.541 34.8984C107.337 34.5064 107.049 34.1974 106.678 33.9716C106.312 33.7457 105.881 33.6328 105.387 33.6328C104.85 33.6328 104.381 33.7649 103.981 34.0291C103.585 34.2891 103.278 34.63 103.06 35.0518C102.847 35.4695 102.741 35.9233 102.741 36.4134V37.532C102.741 38.1882 102.856 38.7464 103.086 39.2067C103.32 39.6669 103.646 40.0185 104.064 40.2614C104.482 40.5 104.969 40.6193 105.528 40.6193C105.89 40.6193 106.22 40.5682 106.518 40.4659C106.817 40.3594 107.075 40.2017 107.292 39.9929C107.509 39.7841 107.675 39.5263 107.79 39.2195L109.599 39.5455C109.455 40.0781 109.195 40.5447 108.82 40.9453C108.449 41.3416 107.982 41.6506 107.42 41.8722C106.862 42.0895 106.224 42.1982 105.509 42.1982ZM113.952 42L111.063 32.1818H113.038L114.962 39.392H115.058L116.989 32.1818H118.964L120.881 39.3601H120.977L122.888 32.1818H124.864L121.981 42H120.031L118.037 34.9112H117.89L115.896 42H113.952ZM134.035 34.5788L132.302 34.8857C132.23 34.6641 132.115 34.4531 131.957 34.2528C131.804 34.0526 131.595 33.8885 131.331 33.7607C131.067 33.6328 130.736 33.5689 130.34 33.5689C129.799 33.5689 129.347 33.6903 128.985 33.9332C128.623 34.1719 128.442 34.4808 128.442 34.8601C128.442 35.1882 128.563 35.4524 128.806 35.6527C129.049 35.853 129.441 36.017 129.982 36.1449L131.542 36.5028C132.445 36.7116 133.118 37.0334 133.562 37.468C134.005 37.9027 134.226 38.4673 134.226 39.1619C134.226 39.75 134.056 40.2741 133.715 40.7344C133.378 41.1903 132.907 41.5483 132.302 41.8082C131.702 42.0682 131.005 42.1982 130.212 42.1982C129.113 42.1982 128.216 41.9638 127.521 41.495C126.827 41.022 126.4 40.3509 126.243 39.4815L128.09 39.2003C128.205 39.6818 128.442 40.0462 128.8 40.2933C129.157 40.5362 129.624 40.6577 130.199 40.6577C130.826 40.6577 131.327 40.5277 131.702 40.2678C132.077 40.0036 132.264 39.6818 132.264 39.3026C132.264 38.9957 132.149 38.7379 131.919 38.5291C131.693 38.3203 131.346 38.1626 130.877 38.0561L129.215 37.6918C128.299 37.483 127.621 37.1506 127.182 36.6946C126.748 36.2386 126.53 35.6612 126.53 34.9624C126.53 34.3828 126.692 33.8757 127.016 33.4411C127.34 33.0064 127.787 32.6676 128.358 32.4247C128.93 32.1776 129.584 32.054 130.321 32.054C131.382 32.054 132.217 32.2841 132.827 32.7443C133.436 33.2003 133.839 33.8118 134.035 34.5788Z" fill="#4B5563"/>
<path d="M29 62L359 62" stroke="#6B7280" stroke-opacity="0.24"/>
<path d="M64 75L64 192" stroke="#6B7280" stroke-opacity="0.24"/>
<path d="M326 192L64 192" stroke="#6B7280" stroke-opacity="0.24"/>
<path d="M326 152L64 152" stroke="#6B7280" stroke-opacity="0.24"/>
<path d="M326 120L64 120" stroke="#6B7280" stroke-opacity="0.24"/>
<path d="M326 86L64 86" stroke="#6B7280" stroke-opacity="0.24"/>
<path d="M34.8 91H35.976V81.382H34.996L32.294 83.37L32.882 84.252L34.8 82.81V91ZM41.24 84.896C40.876 84.896 40.302 84.994 39.784 85.176L39.938 82.474H43.914V81.382H38.832L38.552 86.254L39.238 86.464C39.686 86.072 40.302 85.932 40.932 85.932C42.094 85.932 43.158 86.646 43.158 87.948C43.158 89.124 42.164 89.992 40.918 89.992C39.924 89.992 39.126 89.53 38.692 88.816L37.81 89.488C38.482 90.496 39.672 91.098 41.002 91.098C42.864 91.098 44.348 89.824 44.348 87.962C44.348 86.03 42.948 84.896 41.24 84.896ZM48.711 87.878L50.727 91H52.029L49.467 87.01L52.015 84.182H50.629L47.283 87.906H47.255V80.696H46.135V91H47.255V89.46L48.683 87.878H48.711ZM34.8 125H35.976V115.382H34.996L32.294 117.37L32.882 118.252L34.8 116.81V125ZM41.646 125.084C43.942 125.084 45.258 123.04 45.258 120.198C45.258 117.048 43.732 115.298 41.646 115.298C39.35 115.298 38.034 117.356 38.034 120.198C38.034 123.334 39.56 125.084 41.646 125.084ZM41.646 123.992C40.232 123.992 39.224 122.634 39.224 120.198C39.224 117.888 40.12 116.39 41.646 116.39C43.074 116.39 44.068 117.734 44.068 120.198C44.068 122.494 43.186 123.992 41.646 123.992ZM49.709 121.878L51.725 125H53.027L50.465 121.01L53.013 118.182H51.627L48.281 121.906H48.253V114.696H47.133V125H48.253V123.46L49.681 121.878H49.709ZM35.99 152.896C35.626 152.896 35.052 152.994 34.534 153.176L34.688 150.474H38.664V149.382H33.582L33.302 154.254L33.988 154.464C34.436 154.072 35.052 153.932 35.682 153.932C36.844 153.932 37.908 154.646 37.908 155.948C37.908 157.124 36.914 157.992 35.668 157.992C34.674 157.992 33.876 157.53 33.442 156.816L32.56 157.488C33.232 158.496 34.422 159.098 35.752 159.098C37.614 159.098 39.098 157.824 39.098 155.962C39.098 154.03 37.698 152.896 35.99 152.896ZM43.461 155.878L45.477 159H46.779L44.217 155.01L46.765 152.182H45.379L42.033 155.906H42.005V148.696H40.885V159H42.005V157.46L43.433 155.878H43.461ZM36.396 193.084C38.692 193.084 40.008 191.04 40.008 188.198C40.008 185.048 38.482 183.298 36.396 183.298C34.1 183.298 32.784 185.356 32.784 188.198C32.784 191.334 34.31 193.084 36.396 193.084ZM36.396 191.992C34.982 191.992 33.974 190.634 33.974 188.198C33.974 185.888 34.87 184.39 36.396 184.39C37.824 184.39 38.818 185.734 38.818 188.198C38.818 190.494 37.936 191.992 36.396 191.992ZM44.459 189.878L46.475 193H47.777L45.215 189.01L47.763 186.182H46.377L43.031 189.906H43.003V182.696H41.883V193H43.003V191.46L44.431 189.878H44.459Z" fill="#6B7280"/>
<path d="M73.052 213.07C75.026 213.07 75.852 211.894 75.852 209.766V203.06H74.648V209.738C74.648 211.348 73.976 211.908 73.01 211.908C72.324 211.908 71.61 211.46 71.134 210.914L70.448 211.81C71.134 212.65 72.17 213.07 73.052 213.07ZM83.329 206.182V207.204H83.315C82.741 206.49 81.901 206.098 80.963 206.098C79.031 206.098 77.631 207.624 77.631 209.64C77.631 211.726 79.087 213.084 80.977 213.084C81.971 213.084 82.811 212.65 83.357 211.922H83.371V213H84.463V206.182H83.329ZM81.075 212.048C79.689 212.048 78.779 211.012 78.779 209.64C78.779 208.128 79.801 207.148 81.089 207.148C82.405 207.148 83.371 208.24 83.371 209.64C83.371 211.082 82.307 212.048 81.075 212.048ZM90.1806 206.098C89.1726 206.098 88.2766 206.56 87.7026 207.372H87.6886V206.182H86.5546V213H87.6886V209.598C87.6886 208.058 88.5426 207.148 89.8306 207.148C90.8246 207.148 91.4966 207.68 91.4966 209.276V213H92.6306V208.954C92.6306 207.008 91.6506 206.098 90.1806 206.098ZM110.28 213H111.498V208.786H115.852V207.666H111.498V204.18H116.622V203.06H110.28V213ZM123.76 209.486C123.76 207.526 122.5 206.098 120.596 206.098C118.748 206.098 117.334 207.54 117.334 209.598C117.334 211.67 118.79 213.084 120.722 213.084C121.968 213.084 122.892 212.566 123.48 211.81L122.682 211.124C122.262 211.656 121.618 212.048 120.764 212.048C119.532 212.048 118.636 211.222 118.482 209.948H123.732C123.732 209.906 123.76 209.668 123.76 209.486ZM120.652 207.148C121.744 207.148 122.458 207.89 122.64 209.01H118.524C118.734 207.848 119.588 207.148 120.652 207.148ZM128.992 206.098C128.054 206.098 127.214 206.49 126.64 207.204H126.626V202.696H125.492V213H126.57V211.922H126.598C127.144 212.65 127.984 213.084 128.978 213.084C130.854 213.084 132.324 211.726 132.324 209.64C132.324 207.624 130.91 206.098 128.992 206.098ZM128.866 212.048C127.648 212.048 126.584 211.082 126.584 209.64C126.584 208.24 127.55 207.148 128.852 207.148C130.154 207.148 131.162 208.128 131.162 209.64C131.162 211.012 130.252 212.048 128.866 212.048ZM158.236 203.06L154.582 209.486H154.554L150.9 203.06H149.668V213H150.886V205.384H150.914L154.148 210.998H154.974L158.208 205.384H158.236V213H159.454V203.06H158.236ZM167.083 206.182V207.204H167.069C166.495 206.49 165.655 206.098 164.717 206.098C162.785 206.098 161.385 207.624 161.385 209.64C161.385 211.726 162.841 213.084 164.731 213.084C165.725 213.084 166.565 212.65 167.111 211.922H167.125V213H168.217V206.182H167.083ZM164.829 212.048C163.443 212.048 162.533 211.012 162.533 209.64C162.533 208.128 163.555 207.148 164.843 207.148C166.159 207.148 167.125 208.24 167.125 209.64C167.125 211.082 166.061 212.048 164.829 212.048ZM173.682 206.098C172.758 206.098 171.96 206.574 171.456 207.386H171.442V206.182H170.308V213H171.442V209.71C171.442 208.338 172.226 207.344 173.514 207.344C173.626 207.344 173.808 207.358 173.962 207.372V206.112C173.892 206.098 173.794 206.098 173.682 206.098ZM193.683 213H194.971L191.177 203.06H189.959L186.193 213H187.481L188.363 210.578H192.801L193.683 213ZM188.755 209.514L190.561 204.544H190.589L192.409 209.514H188.755ZM199.908 206.098C198.998 206.098 198.158 206.476 197.584 207.19H197.57V206.182H196.436V215.772H197.556V211.992H197.584C198.13 212.678 198.942 213.084 199.908 213.084C201.784 213.084 203.24 211.726 203.24 209.64C203.24 207.624 201.84 206.098 199.908 206.098ZM199.796 212.048C198.592 212.048 197.528 211.082 197.528 209.64C197.528 208.24 198.494 207.148 199.782 207.148C201.084 207.148 202.092 208.128 202.092 209.64C202.092 211.012 201.182 212.048 199.796 212.048ZM208.354 206.098C207.43 206.098 206.632 206.574 206.128 207.386H206.114V206.182H204.98V213H206.114V209.71C206.114 208.338 206.898 207.344 208.186 207.344C208.298 207.344 208.48 207.358 208.634 207.372V206.112C208.564 206.098 208.466 206.098 208.354 206.098ZM234.156 203.06L230.502 209.486H230.474L226.82 203.06H225.588V213H226.806V205.384H226.834L230.068 210.998H230.894L234.128 205.384H234.156V213H235.374V203.06H234.156ZM243.003 206.182V207.204H242.989C242.415 206.49 241.575 206.098 240.637 206.098C238.705 206.098 237.305 207.624 237.305 209.64C237.305 211.726 238.761 213.084 240.651 213.084C241.645 213.084 242.485 212.65 243.031 211.922H243.045V213H244.137V206.182H243.003ZM240.749 212.048C239.363 212.048 238.453 211.012 238.453 209.64C238.453 208.128 239.475 207.148 240.763 207.148C242.079 207.148 243.045 208.24 243.045 209.64C243.045 211.082 241.981 212.048 240.749 212.048ZM250.988 206.182L248.93 211.376H248.902L246.69 206.182H245.472L248.356 212.72L247.138 215.772H248.342L252.192 206.182H250.988ZM263.31 213.07C265.284 213.07 266.11 211.894 266.11 209.766V203.06H264.906V209.738C264.906 211.348 264.234 211.908 263.268 211.908C262.582 211.908 261.868 211.46 261.392 210.914L260.706 211.81C261.392 212.65 262.428 213.07 263.31 213.07ZM272.971 206.182V209.486C272.971 211.11 272.033 212.048 270.955 212.048C269.863 212.048 269.289 211.474 269.289 209.92V206.182H268.155V210.242C268.155 212.188 269.149 213.084 270.717 213.084C271.599 213.084 272.411 212.65 272.957 211.866H272.971V213H274.105V206.182H272.971ZM279.823 206.098C278.815 206.098 277.919 206.56 277.345 207.372H277.331V206.182H276.197V213H277.331V209.598C277.331 208.058 278.185 207.148 279.473 207.148C280.467 207.148 281.139 207.68 281.139 209.276V213H282.273V208.954C282.273 207.008 281.293 206.098 279.823 206.098ZM301.714 213.07C303.688 213.07 304.514 211.894 304.514 209.766V203.06H303.31V209.738C303.31 211.348 302.638 211.908 301.672 211.908C300.986 211.908 300.272 211.46 299.796 210.914L299.11 211.81C299.796 212.65 300.832 213.07 301.714 213.07ZM311.375 206.182V209.486C311.375 211.11 310.437 212.048 309.359 212.048C308.267 212.048 307.693 211.474 307.693 209.92V206.182H306.559V210.242C306.559 212.188 307.553 213.084 309.121 213.084C310.003 213.084 310.815 212.65 311.361 211.866H311.375V213H312.509V206.182H311.375ZM314.699 213H315.833V202.696H314.699V213Z" fill="#6B7280"/>
<path d="M299.804 30.06L297.242 34.344H297.214L294.638 30.06H293.238L296.612 35.562V40H297.83V35.562L301.218 30.06H299.804ZM307.262 36.486C307.262 34.526 306.002 33.098 304.098 33.098C302.25 33.098 300.836 34.54 300.836 36.598C300.836 38.67 302.292 40.084 304.224 40.084C305.47 40.084 306.394 39.566 306.982 38.81L306.184 38.124C305.764 38.656 305.12 39.048 304.266 39.048C303.034 39.048 302.138 38.222 301.984 36.948H307.234C307.234 36.906 307.262 36.668 307.262 36.486ZM304.154 34.148C305.246 34.148 305.96 34.89 306.142 36.01H302.026C302.236 34.848 303.09 34.148 304.154 34.148ZM314.272 33.182V34.204H314.258C313.684 33.49 312.844 33.098 311.906 33.098C309.974 33.098 308.574 34.624 308.574 36.64C308.574 38.726 310.03 40.084 311.92 40.084C312.914 40.084 313.754 39.65 314.3 38.922H314.314V40H315.406V33.182H314.272ZM312.018 39.048C310.632 39.048 309.722 38.012 309.722 36.64C309.722 35.128 310.744 34.148 312.032 34.148C313.348 34.148 314.314 35.24 314.314 36.64C314.314 38.082 313.25 39.048 312.018 39.048ZM320.872 33.098C319.948 33.098 319.15 33.574 318.646 34.386H318.632V33.182H317.498V40H318.632V36.71C318.632 35.338 319.416 34.344 320.704 34.344C320.816 34.344 320.998 34.358 321.152 34.372V33.112C321.082 33.098 320.984 33.098 320.872 33.098ZM322.6 40H323.734V29.696H322.6V40ZM330.625 33.182L328.567 38.376H328.539L326.327 33.182H325.109L327.993 39.72L326.775 42.772H327.979L331.829 33.182H330.625Z" fill="#06152B"/>
<path fill-rule="evenodd" clip-rule="evenodd" d="M347.916 36.4807L353.145 31.2887C353.532 30.9037 354.158 30.9037 354.545 31.2887C354.73 31.472 354.834 31.7217 354.834 31.9822C354.834 32.2427 354.73 32.4924 354.545 32.6757L348.617 38.5607C348.23 38.9456 347.604 38.9456 347.217 38.5607L341.289 32.6757C341.104 32.4924 341 32.2427 341 31.9822C341 31.7217 341.104 31.472 341.289 31.2887C341.677 30.9037 342.302 30.9037 342.689 31.2887L347.916 36.4807Z" fill="#809FB8"/>
<path d="M92.5 151.5L66 191H325.5V86.5L243.5 176L183 161.5L126.5 171.5L92.5 151.5Z" fill="url(#paint0_linear_1_204)"/>
<g filter="url(#filter1_dd_1_204)">
<circle cx="184.5" cy="162.5" r="3.5" fill="#F55349"/>
</g>
<g filter="url(#filter2_dd_1_204)">
<rect x="163.5" y="141.5" width="42" height="14" rx="3.5" fill="white" stroke="#F55349"/>
<path d="M170.8 151H171.472V150.032H172.272V149.424H171.472V145.504H170.904L168.248 149.552V150.032H170.8V151ZM169.056 149.44L170.816 146.728V149.44H169.056ZM174.643 149.216L175.795 151H176.539L175.075 148.72L176.531 147.104H175.739L173.827 149.232H173.811V145.112H173.171V151H173.811V150.12L174.627 149.216H174.643ZM183.338 145.32L181.642 150H181.626L179.93 145.32H179.178L181.322 151H181.946L184.09 145.32H183.338ZM185.242 146.384C185.498 146.384 185.706 146.184 185.706 145.928C185.706 145.68 185.498 145.472 185.242 145.472C184.978 145.472 184.778 145.68 184.778 145.928C184.778 146.184 184.978 146.384 185.242 146.384ZM184.914 151H185.562V147.104H184.914V151ZM190.29 148.992C190.29 147.872 189.57 147.056 188.482 147.056C187.426 147.056 186.618 147.88 186.618 149.056C186.618 150.24 187.45 151.048 188.554 151.048C189.266 151.048 189.794 150.752 190.13 150.32L189.674 149.928C189.434 150.232 189.066 150.456 188.578 150.456C187.874 150.456 187.362 149.984 187.274 149.256H190.274C190.274 149.232 190.29 149.096 190.29 148.992ZM188.514 147.656C189.138 147.656 189.546 148.08 189.65 148.72H187.298C187.418 148.056 187.906 147.656 188.514 147.656ZM195.725 147.104L194.733 150.016H194.717L193.813 147.104H193.253L192.365 150.016H192.349L191.357 147.104H190.701L192.053 151H192.645L193.533 148.16H193.541L194.421 151H195.029L196.381 147.104H195.725ZM198.363 151.048C199.299 151.048 199.755 150.544 199.755 149.936C199.763 149.168 199.219 149.032 198.395 148.712C197.979 148.552 197.659 148.408 197.659 148.104C197.659 147.824 197.963 147.648 198.259 147.648C198.587 147.648 198.947 147.752 199.291 148.048L199.627 147.536C199.195 147.184 198.755 147.056 198.291 147.056C197.547 147.056 197.003 147.504 197.003 148.104C197.003 148.816 197.539 149.08 198.171 149.304C198.739 149.496 199.099 149.608 199.099 149.944C199.099 150.224 198.827 150.464 198.363 150.464C197.811 150.464 197.475 150.28 197.171 150L196.835 150.488C197.219 150.832 197.723 151.048 198.363 151.048Z" fill="#06152B"/>
</g>
<defs>
<filter id="filter0_dd_1_204" x="0" y="0" width="387" height="255" filterUnits="userSpaceOnUse" color-interpolation-filters="sRGB">
<feFlood flood-opacity="0" result="BackgroundImageFix"/>
<feColorMatrix in="SourceAlpha" type="matrix" values="0 0 0 0 0 0 0 0 0 0 0 0 0 0 0 0 0 0 127 0" result="hardAlpha"/>
<feOffset dy="8"/>
<feGaussianBlur stdDeviation="8"/>
<feColorMatrix type="matrix" values="0 0 0 0 0 0 0 0 0 0 0 0 0 0 0 0 0 0 0.08 0"/>
<feBlend mode="normal" in2="BackgroundImageFix" result="effect1_dropShadow_1_204"/>
<feColorMatrix in="SourceAlpha" type="matrix" values="0 0 0 0 0 0 0 0 0 0 0 0 0 0 0 0 0 0 127 0" result="hardAlpha"/>
<feOffset/>
<feGaussianBlur stdDeviation="2"/>
<feColorMatrix type="matrix" values="0 0 0 0 0 0 0 0 0 0 0 0 0 0 0 0 0 0 0.04 0"/>
<feBlend mode="normal" in2="effect1_dropShadow_1_204" result="effect2_dropShadow_1_204"/>
<feBlend mode="normal" in="SourceGraphic" in2="effect2_dropShadow_1_204" result="shape"/>
</filter>
<filter id="filter1_dd_1_204" x="165" y="151" width="39" height="39" filterUnits="userSpaceOnUse" color-interpolation-filters="sRGB">
<feFlood flood-opacity="0" result="BackgroundImageFix"/>
<feColorMatrix in="SourceAlpha" type="matrix" values="0 0 0 0 0 0 0 0 0 0 0 0 0 0 0 0 0 0 127 0" result="hardAlpha"/>
<feOffset dy="8"/>
<feGaussianBlur stdDeviation="8"/>
<feColorMatrix type="matrix" values="0 0 0 0 0 0 0 0 0 0 0 0 0 0 0 0 0 0 0.08 0"/>
<feBlend mode="normal" in2="BackgroundImageFix" result="effect1_dropShadow_1_204"/>
<feColorMatrix in="SourceAlpha" type="matrix" values="0 0 0 0 0 0 0 0 0 0 0 0 0 0 0 0 0 0 127 0" result="hardAlpha"/>
<feOffset/>
<feGaussianBlur stdDeviation="2"/>
<feColorMatrix type="matrix" values="0 0 0 0 0 0 0 0 0 0 0 0 0 0 0 0 0 0 0.04 0"/>
<feBlend mode="normal" in2="effect1_dropShadow_1_204" result="effect2_dropShadow_1_204"/>
<feBlend mode="normal" in="SourceGraphic" in2="effect2_dropShadow_1_204" result="shape"/>
</filter>
<filter id="filter2_dd_1_204" x="147" y="133" width="75" height="47" filterUnits="userSpaceOnUse" color-interpolation-filters="sRGB">
<feFlood flood-opacity="0" result="BackgroundImageFix"/>
<feColorMatrix in="SourceAlpha" type="matrix" values="0 0 0 0 0 0 0 0 0 0 0 0 0 0 0 0 0 0 127 0" result="hardAlpha"/>
<feOffset dy="8"/>
<feGaussianBlur stdDeviation="8"/>
<feColorMatrix type="matrix" values="0 0 0 0 0 0 0 0 0 0 0 0 0 0 0 0 0 0 0.08 0"/>
<feBlend mode="normal" in2="BackgroundImageFix" result="effect1_dropShadow_1_204"/>
<feColorMatrix in="SourceAlpha" type="matrix" values="0 0 0 0 0 0 0 0 0 0 0 0 0 0 0 0 0 0 127 0" result="hardAlpha"/>
<feOffset/>
<feGaussianBlur stdDeviation="2"/>
<feColorMatrix type="matrix" values="0 0 0 0 0 0 0 0 0 0 0 0 0 0 0 0 0 0 0.04 0"/>
<feBlend mode="normal" in2="effect1_dropShadow_1_204" result="effect2_dropShadow_1_204"/>
<feBlend mode="normal" in="SourceGraphic" in2="effect2_dropShadow_1_204" result="shape"/>
</filter>
<linearGradient id="paint0_linear_1_204" x1="195.75" y1="86.5" x2="195.75" y2="191" gradientUnits="userSpaceOnUse">
<stop offset="0.185176" stop-color="#F55349"/>
<stop offset="0.822685" stop-color="#F55349" stop-opacity="0.64"/>
<stop offset="1" stop-color="#F55349" stop-opacity="0.33"/>
</linearGradient>
</defs>
</svg>
