<svg width="386" height="255" viewBox="0 0 386 255" fill="none" xmlns="http://www.w3.org/2000/svg">
<g filter="url(#filter0_dd_1_223)">
<rect x="16" y="8" width="354" height="223" rx="12" fill="white"/>
</g>
<path d="M44.3111 33.1662H42.3168C42.2401 32.7401 42.0973 32.3651 41.8885 32.0412C41.6797 31.7173 41.424 31.4425 41.1214 31.2166C40.8189 30.9908 40.4801 30.8203 40.1051 30.7053C39.7344 30.5902 39.3402 30.5327 38.9226 30.5327C38.1683 30.5327 37.4929 30.7223 36.8963 31.1016C36.304 31.4808 35.8352 32.0369 35.4901 32.7699C35.1491 33.5028 34.9787 34.3977 34.9787 35.4545C34.9787 36.5199 35.1491 37.419 35.4901 38.152C35.8352 38.8849 36.3061 39.4389 36.9027 39.8139C37.4993 40.1889 38.1705 40.3764 38.9162 40.3764C39.3295 40.3764 39.7216 40.321 40.0923 40.2102C40.4673 40.0952 40.8061 39.9268 41.1087 39.7053C41.4112 39.4837 41.6669 39.2131 41.8757 38.8935C42.0888 38.5696 42.2358 38.1989 42.3168 37.7812L44.3111 37.7876C44.2045 38.4311 43.9979 39.0234 43.6911 39.5646C43.3885 40.1016 42.9986 40.5661 42.5213 40.9581C42.0483 41.3459 41.5071 41.6463 40.8977 41.8594C40.2884 42.0724 39.6236 42.179 38.9034 42.179C37.7699 42.179 36.7599 41.9105 35.8736 41.3736C34.9872 40.8324 34.2884 40.0589 33.777 39.0533C33.2699 38.0476 33.0163 36.848 33.0163 35.4545C33.0163 34.0568 33.272 32.8572 33.7834 31.8558C34.2947 30.8501 34.9936 30.0788 35.88 29.5419C36.7663 29.0007 37.7741 28.7301 38.9034 28.7301C39.598 28.7301 40.2457 28.8303 40.8466 29.0305C41.4517 29.2266 41.995 29.5163 42.4766 29.8999C42.9581 30.2791 43.3565 30.7436 43.6719 31.2933C43.9872 31.8388 44.2003 32.4631 44.3111 33.1662ZM50.6568 42.1982C49.7363 42.1982 48.9331 41.9872 48.247 41.5653C47.5609 41.1435 47.0282 40.5533 46.649 39.7947C46.2697 39.0362 46.0801 38.1499 46.0801 37.1357C46.0801 36.1172 46.2697 35.2266 46.649 34.4638C47.0282 33.701 47.5609 33.1087 48.247 32.6868C48.9331 32.2649 49.7363 32.054 50.6568 32.054C51.5772 32.054 52.3805 32.2649 53.0666 32.6868C53.7527 33.1087 54.2853 33.701 54.6646 34.4638C55.0439 35.2266 55.2335 36.1172 55.2335 37.1357C55.2335 38.1499 55.0439 39.0362 54.6646 39.7947C54.2853 40.5533 53.7527 41.1435 53.0666 41.5653C52.3805 41.9872 51.5772 42.1982 50.6568 42.1982ZM50.6632 40.5938C51.2598 40.5938 51.7541 40.4361 52.1461 40.1207C52.5382 39.8054 52.8279 39.3857 53.0154 38.8615C53.2072 38.3374 53.3031 37.7599 53.3031 37.1293C53.3031 36.5028 53.2072 35.9276 53.0154 35.4034C52.8279 34.875 52.5382 34.451 52.1461 34.1314C51.7541 33.8118 51.2598 33.652 50.6632 33.652C50.0623 33.652 49.5637 33.8118 49.1674 34.1314C48.7754 34.451 48.4835 34.875 48.2917 35.4034C48.1042 35.9276 48.0105 36.5028 48.0105 37.1293C48.0105 37.7599 48.1042 38.3374 48.2917 38.8615C48.4835 39.3857 48.7754 39.8054 49.1674 40.1207C49.5637 40.4361 50.0623 40.5938 50.6632 40.5938ZM59.2781 36.1705V42H57.3668V32.1818H59.2013V33.7798H59.3228C59.5487 33.2599 59.9023 32.8423 60.3839 32.527C60.8697 32.2116 61.4812 32.054 62.2184 32.054C62.8874 32.054 63.4734 32.1946 63.9762 32.4759C64.479 32.7528 64.869 33.1662 65.146 33.7159C65.4229 34.2656 65.5614 34.9453 65.5614 35.755V42H63.6502V35.9851C63.6502 35.2734 63.4648 34.7173 63.0941 34.3168C62.7234 33.9119 62.2141 33.7095 61.5664 33.7095C61.1232 33.7095 60.729 33.8054 60.3839 33.9972C60.043 34.1889 59.7724 34.4702 59.5721 34.8409C59.3761 35.2074 59.2781 35.6506 59.2781 36.1705ZM76.1722 32.1818L72.6119 42H70.5664L66.9996 32.1818H69.0515L71.538 39.7372H71.6403L74.1204 32.1818H76.1722ZM81.8659 42.1982C80.8986 42.1982 80.0655 41.9915 79.3667 41.5781C78.6721 41.1605 78.1351 40.5746 77.7559 39.8203C77.3809 39.0618 77.1934 38.1733 77.1934 37.1548C77.1934 36.1491 77.3809 35.2628 77.7559 34.4957C78.1351 33.7287 78.6635 33.13 79.3411 32.6996C80.0229 32.2692 80.8198 32.054 81.7317 32.054C82.2857 32.054 82.8226 32.1456 83.3425 32.3288C83.8624 32.5121 84.329 32.7997 84.7424 33.1918C85.1557 33.5838 85.4817 34.093 85.7203 34.7195C85.959 35.3416 86.0783 36.098 86.0783 36.9886V37.6662H78.2736V36.2344H84.2054C84.2054 35.7315 84.1032 35.2862 83.8986 34.8984C83.6941 34.5064 83.4064 34.1974 83.0357 33.9716C82.6692 33.7457 82.2388 33.6328 81.7445 33.6328C81.2076 33.6328 80.7388 33.7649 80.3382 34.0291C79.9419 34.2891 79.6351 34.63 79.4178 35.0518C79.2047 35.4695 79.0982 35.9233 79.0982 36.4134V37.532C79.0982 38.1882 79.2132 38.7464 79.4434 39.2067C79.6777 39.6669 80.0037 40.0185 80.4213 40.2614C80.839 40.5 81.3269 40.6193 81.8851 40.6193C82.2473 40.6193 82.5776 40.5682 82.8759 40.4659C83.1742 40.3594 83.432 40.2017 83.6493 39.9929C83.8667 39.7841 84.0328 39.5263 84.1479 39.2195L85.9569 39.5455C85.812 40.0781 85.552 40.5447 85.177 40.9453C84.8063 41.3416 84.3397 41.6506 83.7772 41.8722C83.2189 42.0895 82.5819 42.1982 81.8659 42.1982ZM88.1989 42V32.1818H90.0462V33.7415H90.1484C90.3274 33.2131 90.6428 32.7976 91.0945 32.495C91.5504 32.1882 92.0661 32.0348 92.6413 32.0348C92.7607 32.0348 92.9013 32.0391 93.0632 32.0476C93.2294 32.0561 93.3594 32.0668 93.4531 32.0795V33.9077C93.3764 33.8864 93.2401 33.8629 93.044 33.8374C92.848 33.8075 92.652 33.7926 92.456 33.7926C92.0043 33.7926 91.6016 33.8885 91.2479 34.0803C90.8984 34.2678 90.6214 34.5298 90.4169 34.8665C90.2124 35.1989 90.1101 35.5781 90.1101 36.0043V42H88.1989ZM102.464 34.5788L100.732 34.8857C100.66 34.6641 100.545 34.4531 100.387 34.2528C100.233 34.0526 100.025 33.8885 99.7605 33.7607C99.4963 33.6328 99.166 33.5689 98.7697 33.5689C98.2285 33.5689 97.7768 33.6903 97.4146 33.9332C97.0524 34.1719 96.8713 34.4808 96.8713 34.8601C96.8713 35.1882 96.9927 35.4524 97.2356 35.6527C97.4785 35.853 97.8706 36.017 98.4118 36.1449L99.9714 36.5028C100.875 36.7116 101.548 37.0334 101.991 37.468C102.434 37.9027 102.656 38.4673 102.656 39.1619C102.656 39.75 102.486 40.2741 102.145 40.7344C101.808 41.1903 101.337 41.5483 100.732 41.8082C100.131 42.0682 99.4345 42.1982 98.6419 42.1982C97.5424 42.1982 96.6454 41.9638 95.9508 41.495C95.2562 41.022 94.8301 40.3509 94.6724 39.4815L96.5197 39.2003C96.6348 39.6818 96.8713 40.0462 97.2292 40.2933C97.5872 40.5362 98.0538 40.6577 98.6291 40.6577C99.2555 40.6577 99.7562 40.5277 100.131 40.2678C100.506 40.0036 100.694 39.6818 100.694 39.3026C100.694 38.9957 100.579 38.7379 100.349 38.5291C100.123 38.3203 99.7754 38.1626 99.3066 38.0561L97.6447 37.6918C96.7285 37.483 96.051 37.1506 95.612 36.6946C95.1774 36.2386 94.96 35.6612 94.96 34.9624C94.96 34.3828 95.122 33.8757 95.4458 33.4411C95.7697 33.0064 96.2172 32.6676 96.7882 32.4247C97.3592 32.1776 98.0133 32.054 98.7505 32.054C99.8116 32.054 100.647 32.2841 101.256 32.7443C101.866 33.2003 102.268 33.8118 102.464 34.5788ZM104.757 42V32.1818H106.669V42H104.757ZM105.723 30.6669C105.39 30.6669 105.105 30.5561 104.866 30.3345C104.632 30.1087 104.515 29.8402 104.515 29.5291C104.515 29.2138 104.632 28.9453 104.866 28.7237C105.105 28.4979 105.39 28.3849 105.723 28.3849C106.055 28.3849 106.338 28.4979 106.573 28.7237C106.811 28.9453 106.931 29.2138 106.931 29.5291C106.931 29.8402 106.811 30.1087 106.573 30.3345C106.338 30.5561 106.055 30.6669 105.723 30.6669ZM113.376 42.1982C112.455 42.1982 111.652 41.9872 110.966 41.5653C110.28 41.1435 109.747 40.5533 109.368 39.7947C108.988 39.0362 108.799 38.1499 108.799 37.1357C108.799 36.1172 108.988 35.2266 109.368 34.4638C109.747 33.701 110.28 33.1087 110.966 32.6868C111.652 32.2649 112.455 32.054 113.376 32.054C114.296 32.054 115.099 32.2649 115.785 32.6868C116.471 33.1087 117.004 33.701 117.383 34.4638C117.763 35.2266 117.952 36.1172 117.952 37.1357C117.952 38.1499 117.763 39.0362 117.383 39.7947C117.004 40.5533 116.471 41.1435 115.785 41.5653C115.099 41.9872 114.296 42.1982 113.376 42.1982ZM113.382 40.5938C113.979 40.5938 114.473 40.4361 114.865 40.1207C115.257 39.8054 115.547 39.3857 115.734 38.8615C115.926 38.3374 116.022 37.7599 116.022 37.1293C116.022 36.5028 115.926 35.9276 115.734 35.4034C115.547 34.875 115.257 34.451 114.865 34.1314C114.473 33.8118 113.979 33.652 113.382 33.652C112.781 33.652 112.282 33.8118 111.886 34.1314C111.494 34.451 111.202 34.875 111.01 35.4034C110.823 35.9276 110.729 36.5028 110.729 37.1293C110.729 37.7599 110.823 38.3374 111.01 38.8615C111.202 39.3857 111.494 39.8054 111.886 40.1207C112.282 40.4361 112.781 40.5938 113.382 40.5938ZM121.997 36.1705V42H120.086V32.1818H121.92V33.7798H122.042C122.267 33.2599 122.621 32.8423 123.103 32.527C123.588 32.2116 124.2 32.054 124.937 32.054C125.606 32.054 126.192 32.1946 126.695 32.4759C127.198 32.7528 127.588 33.1662 127.865 33.7159C128.142 34.2656 128.28 34.9453 128.28 35.755V42H126.369V35.9851C126.369 35.2734 126.184 34.7173 125.813 34.3168C125.442 33.9119 124.933 33.7095 124.285 33.7095C123.842 33.7095 123.448 33.8054 123.103 33.9972C122.762 34.1889 122.491 34.4702 122.291 34.8409C122.095 35.2074 121.997 35.6506 121.997 36.1705ZM135.607 42V32.1818H137.454V33.7415H137.557C137.736 33.2131 138.051 32.7976 138.503 32.495C138.959 32.1882 139.474 32.0348 140.05 32.0348C140.169 32.0348 140.309 32.0391 140.471 32.0476C140.638 32.0561 140.768 32.0668 140.861 32.0795V33.9077C140.785 33.8864 140.648 33.8629 140.452 33.8374C140.256 33.8075 140.06 33.7926 139.864 33.7926C139.412 33.7926 139.01 33.8885 138.656 34.0803C138.307 34.2678 138.03 34.5298 137.825 34.8665C137.621 35.1989 137.518 35.5781 137.518 36.0043V42H135.607ZM145.285 42.2173C144.662 42.2173 144.1 42.1023 143.597 41.8722C143.094 41.6378 142.696 41.299 142.402 40.8558C142.112 40.4126 141.967 39.8693 141.967 39.2259C141.967 38.6719 142.074 38.2159 142.287 37.858C142.5 37.5 142.787 37.2166 143.15 37.0078C143.512 36.799 143.917 36.6413 144.364 36.5348C144.812 36.4283 145.268 36.3473 145.732 36.2919C146.32 36.2237 146.797 36.1683 147.164 36.1257C147.53 36.0788 147.797 36.0043 147.963 35.902C148.129 35.7997 148.212 35.6335 148.212 35.4034V35.3587C148.212 34.8004 148.055 34.3679 147.739 34.0611C147.428 33.7543 146.964 33.6009 146.346 33.6009C145.702 33.6009 145.195 33.7436 144.824 34.0291C144.458 34.3104 144.204 34.6236 144.064 34.9688L142.268 34.5597C142.481 33.9631 142.792 33.4815 143.201 33.1151C143.614 32.7443 144.089 32.4759 144.626 32.3097C145.163 32.1392 145.728 32.054 146.32 32.054C146.712 32.054 147.128 32.1009 147.567 32.1946C148.01 32.2841 148.423 32.4503 148.807 32.6932C149.194 32.9361 149.512 33.2834 149.759 33.7351C150.006 34.1825 150.13 34.7642 150.13 35.4801V42H148.263V40.6577H148.187C148.063 40.9048 147.878 41.1477 147.631 41.3864C147.383 41.625 147.066 41.8232 146.678 41.9808C146.29 42.1385 145.826 42.2173 145.285 42.2173ZM145.7 40.6832C146.229 40.6832 146.68 40.5788 147.055 40.37C147.434 40.1612 147.722 39.8885 147.918 39.5518C148.118 39.2109 148.219 38.8466 148.219 38.4588V37.1932C148.15 37.2614 148.018 37.3253 147.822 37.3849C147.631 37.4403 147.411 37.4893 147.164 37.532C146.917 37.5703 146.676 37.6065 146.442 37.6406C146.207 37.6705 146.011 37.696 145.854 37.7173C145.483 37.7642 145.144 37.843 144.837 37.9538C144.535 38.0646 144.292 38.2244 144.108 38.4332C143.93 38.6378 143.84 38.9105 143.84 39.2514C143.84 39.7244 144.015 40.0824 144.364 40.3253C144.714 40.5639 145.159 40.6832 145.7 40.6832ZM157.259 32.1818V33.7159H151.896V32.1818H157.259ZM153.334 29.8295H155.245V39.1172C155.245 39.4879 155.3 39.767 155.411 39.9545C155.522 40.1378 155.665 40.2635 155.839 40.3317C156.018 40.3956 156.212 40.4276 156.421 40.4276C156.575 40.4276 156.709 40.4169 156.824 40.3956C156.939 40.3743 157.028 40.3572 157.092 40.3445L157.438 41.9233C157.327 41.9659 157.169 42.0085 156.964 42.0511C156.76 42.098 156.504 42.1236 156.197 42.1278C155.695 42.1364 155.226 42.0469 154.791 41.8594C154.357 41.6719 154.005 41.3821 153.737 40.9901C153.468 40.598 153.334 40.1058 153.334 39.5135V29.8295ZM163.499 42.1982C162.531 42.1982 161.698 41.9915 160.999 41.5781C160.305 41.1605 159.768 40.5746 159.389 39.8203C159.014 39.0618 158.826 38.1733 158.826 37.1548C158.826 36.1491 159.014 35.2628 159.389 34.4957C159.768 33.7287 160.296 33.13 160.974 32.6996C161.656 32.2692 162.453 32.054 163.365 32.054C163.919 32.054 164.455 32.1456 164.975 32.3288C165.495 32.5121 165.962 32.7997 166.375 33.1918C166.789 33.5838 167.115 34.093 167.353 34.7195C167.592 35.3416 167.711 36.098 167.711 36.9886V37.6662H159.906V36.2344H165.838C165.838 35.7315 165.736 35.2862 165.531 34.8984C165.327 34.5064 165.039 34.1974 164.669 33.9716C164.302 33.7457 163.872 33.6328 163.377 33.6328C162.84 33.6328 162.372 33.7649 161.971 34.0291C161.575 34.2891 161.268 34.63 161.051 35.0518C160.838 35.4695 160.731 35.9233 160.731 36.4134V37.532C160.731 38.1882 160.846 38.7464 161.076 39.2067C161.311 39.6669 161.637 40.0185 162.054 40.2614C162.472 40.5 162.96 40.6193 163.518 40.6193C163.88 40.6193 164.21 40.5682 164.509 40.4659C164.807 40.3594 165.065 40.2017 165.282 39.9929C165.499 39.7841 165.666 39.5263 165.781 39.2195L167.59 39.5455C167.445 40.0781 167.185 40.5447 166.81 40.9453C166.439 41.3416 165.972 41.6506 165.41 41.8722C164.852 42.0895 164.215 42.1982 163.499 42.1982Z" fill="#4B5563"/>
<path d="M28 62L358 62" stroke="#6B7280" stroke-opacity="0.24"/>
<path d="M347 207L28 207" stroke="#6B7280" stroke-opacity="0.24"/>
<path fill-rule="evenodd" clip-rule="evenodd" d="M28 207C30.4561 200.454 35.1098 189.008 41.0977 185.841C43.9693 184.323 46.4164 185.452 48.735 185.031C59.9805 182.992 61.5929 155.484 68.4673 155.225C73.4365 155.038 75.3839 169.307 82.8481 169.773C87.1615 170.043 88.3744 165.394 93.5502 165.16C100.707 164.836 103.222 173.506 107.931 173.676C119.349 174.09 126.068 123.902 135.02 124C144.684 124.106 149.598 182.72 165.789 183.967C172.004 184.445 179.138 176.413 187.193 180.418C190.569 182.098 191.001 184.347 193.212 184.322C200.59 184.235 202.888 159.107 208.931 158.773C216.089 158.378 219.437 193.286 230 194.257C238.759 195.062 244.906 171.841 253.411 173.321C260.488 174.553 261.199 191.494 267.457 191.773C273.748 192.053 276.371 175.086 286.52 174.031C289.832 173.687 290.074 175.439 294.881 176.16C305.906 177.815 311.645 169.657 318.292 169.774C324.134 169.876 338.116 180.97 347 206.999L28 207Z" fill="#4CC4DB" fill-opacity="0.8"/>
<path d="M297.736 37.565H300.6V36.301H297.736V33.181H296.344V36.301H293.464V37.565H296.344V40.813H297.736V37.565ZM304.311 42.333H306.583V31.661H304.599L301.239 35.037L302.535 36.397L304.311 34.589V42.333ZM308.185 37.021C308.185 40.029 309.545 42.525 312.793 42.525C315.225 42.525 316.873 40.941 316.873 38.861C316.873 36.589 315.161 35.421 313.241 35.421C312.073 35.421 311.001 36.061 310.505 36.781C310.489 36.717 310.489 36.637 310.489 36.557C310.489 34.861 311.545 33.469 313.161 33.469C314.105 33.469 314.713 33.773 315.289 34.317L316.313 32.605C315.545 31.949 314.457 31.501 313.161 31.501C310.009 31.501 308.185 33.789 308.185 37.021ZM314.569 38.957C314.569 39.709 313.913 40.541 312.681 40.541C311.177 40.541 310.601 39.357 310.505 38.333C311.017 37.709 311.785 37.309 312.585 37.309C313.625 37.309 314.569 37.805 314.569 38.957ZM319.167 44.525C320.143 43.821 320.815 42.749 320.815 41.549C320.815 40.509 320.127 39.917 319.375 39.917C318.703 39.917 318.127 40.493 318.127 41.197C318.127 41.885 318.607 42.365 319.215 42.365C319.327 42.365 319.471 42.333 319.519 42.317C319.391 42.877 318.799 43.533 318.287 43.805L319.167 44.525ZM322.221 42.333H330.253V40.333H325.805C328.669 38.317 330.173 36.733 330.173 34.909C330.173 32.781 328.365 31.501 326.093 31.501C324.605 31.501 323.021 32.045 321.981 33.245L323.277 34.749C323.997 33.997 324.925 33.517 326.125 33.517C327.021 33.517 327.869 33.981 327.869 34.909C327.869 36.221 326.589 37.325 322.221 40.541V42.333ZM336.567 42.333H338.839V40.125H340.215V38.125H338.839V31.661H335.703L331.463 38.333V40.125H336.567V42.333ZM336.567 33.677V38.125H333.687L336.567 33.677ZM345.119 34.189C345.119 35.677 346.191 36.813 347.823 36.813C349.471 36.813 350.543 35.677 350.543 34.189C350.543 32.685 349.471 31.501 347.823 31.501C346.191 31.501 345.119 32.685 345.119 34.189ZM346.783 42.333H347.983L354.815 31.661H353.599L346.783 42.333ZM349.087 34.189C349.087 35.021 348.559 35.565 347.823 35.565C347.103 35.565 346.559 35.021 346.559 34.189C346.559 33.293 347.103 32.765 347.823 32.765C348.559 32.765 349.087 33.293 349.087 34.189ZM350.991 39.885C350.991 41.373 352.063 42.525 353.695 42.525C355.327 42.525 356.415 41.373 356.415 39.885C356.415 38.381 355.327 37.197 353.695 37.197C352.063 37.197 350.991 38.381 350.991 39.885ZM354.975 39.885C354.975 40.749 354.431 41.277 353.695 41.277C352.959 41.277 352.431 40.749 352.431 39.885C352.431 39.005 352.959 38.461 353.695 38.461C354.431 38.461 354.975 39.005 354.975 39.885Z" fill="#4CC4DB"/>
<ellipse cx="271" cy="37" rx="12" ry="12" fill="#4CC4DB" fill-opacity="0.2"/>
<path fill-rule="evenodd" clip-rule="evenodd" d="M267.169 40.756C266.825 40.4058 266.825 39.8442 267.169 39.494L272.737 33.8781H269.564C269.071 33.8779 268.672 33.4784 268.672 32.9856C268.672 32.4928 269.071 32.0933 269.564 32.093H274.873C274.964 32.0929 275.055 32.1071 275.142 32.135H275.152H275.158C275.286 32.1787 275.403 32.2516 275.498 32.348C275.61 32.4604 275.69 32.6006 275.729 32.754V32.769V32.7781V32.7881V32.801V32.808V32.823V32.828V32.845V32.8629V32.8809V32.8988V32.9038C275.729 32.9088 275.729 32.9148 275.729 32.9198C275.729 32.9248 275.729 32.9198 275.729 32.9268C275.729 32.9337 275.729 32.9368 275.729 32.9408C275.729 32.9448 275.729 32.9508 275.729 32.9568C275.729 32.9628 275.729 32.9568 275.729 32.9628V38.3177C275.74 38.6409 275.574 38.9443 275.296 39.1091C275.018 39.2739 274.672 39.2739 274.393 39.1091C274.115 38.9443 273.949 38.6409 273.96 38.3177V35.1178L268.392 40.7338C268.227 40.9008 268.002 40.9947 267.767 40.9947C267.532 40.9947 267.306 40.9008 267.141 40.7338L267.169 40.756Z" fill="#4CC4DB"/>
<defs>
<filter id="filter0_dd_1_223" x="0" y="0" width="386" height="255" filterUnits="userSpaceOnUse" color-interpolation-filters="sRGB">
<feFlood flood-opacity="0" result="BackgroundImageFix"/>
<feColorMatrix in="SourceAlpha" type="matrix" values="0 0 0 0 0 0 0 0 0 0 0 0 0 0 0 0 0 0 127 0" result="hardAlpha"/>
<feOffset dy="8"/>
<feGaussianBlur stdDeviation="8"/>
<feColorMatrix type="matrix" values="0 0 0 0 0 0 0 0 0 0 0 0 0 0 0 0 0 0 0.08 0"/>
<feBlend mode="normal" in2="BackgroundImageFix" result="effect1_dropShadow_1_223"/>
<feColorMatrix in="SourceAlpha" type="matrix" values="0 0 0 0 0 0 0 0 0 0 0 0 0 0 0 0 0 0 127 0" result="hardAlpha"/>
<feOffset/>
<feGaussianBlur stdDeviation="2"/>
<feColorMatrix type="matrix" values="0 0 0 0 0 0 0 0 0 0 0 0 0 0 0 0 0 0 0.04 0"/>
<feBlend mode="normal" in2="effect1_dropShadow_1_223" result="effect2_dropShadow_1_223"/>
<feBlend mode="normal" in="SourceGraphic" in2="effect2_dropShadow_1_223" result="shape"/>
</filter>
</defs>
</svg>
