<svg width="56" height="56" viewBox="0 0 56 56" fill="none" xmlns="http://www.w3.org/2000/svg">
<circle cx="28" cy="28" r="24.8889" fill="white"/>
<ellipse cx="28" cy="47.8333" rx="21.7778" ry="1.16667" fill="#FECDCA"/>
<path d="M27.458 44.8903C21.7486 44.8903 17.1221 40.2637 17.1221 34.5543V30.0043H37.7939V34.5543C37.7939 40.2637 33.1674 44.8903 27.458 44.8903Z" fill="#F55349"/>
<path d="M24.5923 34.5543V30.0043H17.1111V34.5543C17.1111 40.2637 21.7376 44.8903 27.447 44.8903C28.7705 44.8903 30.0283 44.6387 31.1876 44.1903C27.3376 42.6918 24.5923 38.9512 24.5923 34.5543Z" fill="#E8362B"/>
<path d="M38.0346 41.609H34.3893C33.9627 41.609 33.6237 41.2699 33.6237 40.8434C33.6237 40.4168 33.9627 40.0778 34.3893 40.0778H38.0346C38.7127 40.0778 39.369 39.8809 39.9486 39.5199C40.9549 38.8637 41.5674 37.759 41.5674 36.5559V33.0231H37.1115C36.6849 33.0231 36.3459 32.684 36.3459 32.2574C36.3459 31.8309 36.6849 31.4918 37.1115 31.4918L42.333 31.4918C42.7596 31.4918 43.0986 31.8309 43.0986 32.2574V36.5559C43.0986 38.284 42.2346 39.87 40.7799 40.7996C39.9596 41.3246 39.008 41.609 38.0346 41.609Z" fill="#F55349"/>
<path d="M33.9987 47.5736H20.9284C18.8284 47.5736 17.1221 45.8673 17.1221 43.7673H37.794C37.794 45.8673 36.0987 47.5736 33.9987 47.5736Z" fill="#FFC34F"/>
<path d="M19.6116 43.7673L17.1221 43.7673C17.1221 45.8673 18.8284 47.5736 20.9284 47.5736H25.056C22.956 47.5736 19.6116 45.8673 19.6116 43.7673Z" fill="#FFA927"/>
<path d="M26.8292 24.8025C26.6754 24.8025 26.5215 24.7409 26.4104 24.6178C25.9318 24.1254 25.6668 23.4659 25.6668 22.7713C25.6668 22.1294 25.889 21.5226 26.2993 21.0478C26.3249 20.9863 26.3677 20.9335 26.4104 20.8895C26.6668 20.6257 26.8036 20.2828 26.8036 19.9135C26.8036 19.5442 26.6668 19.2013 26.4104 18.9375C26.1796 18.7 26.1796 18.3044 26.4104 18.0669C26.6412 17.8295 27.0258 17.8295 27.2566 18.0669C27.7352 18.5594 28.0001 19.2188 28.0001 19.9135C28.0001 20.5554 27.7779 21.1621 27.3677 21.6369C27.342 21.6985 27.2993 21.7513 27.2566 21.7952C27.0001 22.059 26.8634 22.4019 26.8634 22.7713C26.8634 23.1406 27.0001 23.4835 27.2566 23.7473C27.4873 23.9847 27.4873 24.3804 27.2566 24.6178C27.1369 24.7409 26.983 24.8025 26.8292 24.8025Z" fill="#FFA927"/>
<path d="M22.1616 25.6667C21.975 25.6667 21.7883 25.5975 21.6535 25.4691C20.824 24.679 20.7825 23.4247 21.5395 22.5951C21.5706 22.5457 21.612 22.4963 21.6535 22.4469C21.9542 22.1605 21.9542 21.6963 21.6535 21.4C21.3735 21.1333 21.3735 20.6889 21.6535 20.4222C21.9335 20.1556 22.4001 20.1556 22.6801 20.4222C23.5096 21.2124 23.5511 22.4667 22.7941 23.2963C22.763 23.3457 22.7215 23.3951 22.6801 23.4445C22.3794 23.7309 22.3794 24.1951 22.6801 24.4914C22.96 24.758 22.96 25.2025 22.6801 25.4691C22.5349 25.5975 22.3482 25.6667 22.1616 25.6667Z" fill="#FFC34F"/>
<path d="M31.1147 25.6667C30.9902 25.6667 30.8658 25.6008 30.769 25.4785C30.216 24.726 30.1884 23.5314 30.693 22.7413C30.7137 22.6943 30.7414 22.6473 30.769 22.6002C30.9695 22.3274 30.9695 21.8854 30.769 21.6032C30.5824 21.3492 30.5824 20.9259 30.769 20.672C30.9557 20.418 31.2668 20.418 31.4534 20.672C32.0064 21.4245 32.0341 22.619 31.5294 23.4092C31.5087 23.4562 31.481 23.5032 31.4534 23.5503C31.2529 23.823 31.2529 24.2651 31.4534 24.5473C31.64 24.8013 31.64 25.2246 31.4534 25.4785C31.3635 25.6008 31.2391 25.6667 31.1147 25.6667Z" fill="#FFC34F"/>
<ellipse cx="13.3237" cy="7.87924" rx="2.43478" ry="2.43478" fill="#F55349"/>
<ellipse cx="46.1594" cy="18.1594" rx="1.82609" ry="1.82609" fill="#6BB229"/>
</svg>
