<svg width="25" height="25" viewBox="0 0 25 25" fill="none" xmlns="http://www.w3.org/2000/svg">
<ellipse cx="12.5" cy="12.5" rx="12.5" ry="12.5" fill="#F55349"/>
<path fill-rule="evenodd" clip-rule="evenodd" d="M8.50978 16.4127C8.15114 16.0479 8.15114 15.463 8.50978 15.0982L14.3098 9.24823H11.0046C10.4912 9.2481 10.0751 8.83192 10.0751 8.31859C10.0751 7.80525 10.4911 7.38907 11.0045 7.38882H16.5348C16.63 7.38869 16.7245 7.40344 16.8151 7.43256H16.8254H16.8317C16.9653 7.47808 17.0866 7.55399 17.1859 7.65445C17.3023 7.77156 17.3853 7.91753 17.4265 8.07737V8.09301V8.10242V8.11285V8.12633V8.13357V8.14921V8.15443V8.1721V8.19079V8.20949V8.22818V8.23339C17.4265 8.2386 17.4265 8.24483 17.4265 8.25005C17.4265 8.25526 17.4265 8.25005 17.4265 8.2573C17.4265 8.26454 17.4265 8.26772 17.4265 8.27192C17.4265 8.27612 17.4265 8.28235 17.4265 8.28858C17.4265 8.29481 17.4265 8.28858 17.4265 8.29481V13.8729C17.438 14.2095 17.2649 14.5256 16.9751 14.6973C16.6854 14.8689 16.325 14.8689 16.0353 14.6973C15.7455 14.5256 15.5724 14.2095 15.5838 13.8729V10.5396L9.78383 16.3896C9.61166 16.5635 9.37706 16.6615 9.13228 16.6615C8.8875 16.6615 8.6529 16.5635 8.48073 16.3896L8.50978 16.4127Z" fill="white"/>
</svg>
