<svg width="32" height="32" viewBox="0 0 32 32" fill="none" xmlns="http://www.w3.org/2000/svg">
<path d="M25.7733 7.57333L17.4133 3.06667C16.5333 2.58667 15.4667 2.58667 14.5867 3.06667L6.22666 7.57333C5.61332 7.90666 5.23999 8.54667 5.23999 9.28C5.23999 10 5.61332 10.6533 6.22666 10.9867L14.5867 15.4933C15.0267 15.7333 15.52 15.8533 16 15.8533C16.48 15.8533 16.9733 15.7333 17.4133 15.4933L25.7733 10.9867C26.3867 10.6533 26.76 10.0133 26.76 9.28C26.76 8.54667 26.3867 7.90666 25.7733 7.57333Z" fill="#F55349"/>
<path d="M13.2134 17.0533L5.42669 13.16C4.82669 12.8667 4.13335 12.8933 3.57335 13.24C3.00002 13.6 2.66669 14.2 2.66669 14.8667V22.2133C2.66669 23.48 3.37335 24.6267 4.50669 25.2L12.28 29.0933C12.5467 29.2267 12.84 29.2933 13.1334 29.2933C13.48 29.2933 13.8267 29.2 14.1334 29.0133C14.7067 28.6667 15.04 28.0533 15.04 27.3867V20.04C15.0534 18.76 14.3467 17.6133 13.2134 17.0533Z" fill="#F55349"/>
<path d="M28.4267 13.24C27.8534 12.8933 27.16 12.8533 26.5734 13.16L18.8 17.0533C17.6667 17.6267 16.96 18.76 16.96 20.04V27.3867C16.96 28.0533 17.2934 28.6667 17.8667 29.0133C18.1734 29.2 18.52 29.2933 18.8667 29.2933C19.16 29.2933 19.4534 29.2267 19.72 29.0933L27.4934 25.2C28.6267 24.6267 29.3334 23.4933 29.3334 22.2133V14.8667C29.3334 14.2 29 13.6 28.4267 13.24Z" fill="#F55349"/>
</svg>
