<svg width="22" height="22" viewBox="0 0 22 22" fill="none" xmlns="http://www.w3.org/2000/svg">
<path d="M17.7192 5.20667L11.9717 2.10834C11.3667 1.77834 10.6333 1.77834 10.0283 2.10834L4.28084 5.20667C3.85918 5.43584 3.60251 5.87584 3.60251 6.38001C3.60251 6.87501 3.85918 7.32417 4.28084 7.55334L10.0283 10.6517C10.3308 10.8167 10.67 10.8992 11 10.8992C11.33 10.8992 11.6692 10.8167 11.9717 10.6517L17.7192 7.55334C18.1408 7.32417 18.3975 6.88417 18.3975 6.38001C18.3975 5.87584 18.1408 5.43584 17.7192 5.20667Z" fill="#4B5563"/>
<path d="M9.08418 11.7242L3.73084 9.0475C3.31834 8.84584 2.84168 8.86417 2.45668 9.10251C2.06251 9.35001 1.83334 9.7625 1.83334 10.2208V15.2717C1.83334 16.1425 2.31918 16.9308 3.09834 17.325L8.44251 20.0017C8.62584 20.0933 8.82751 20.1392 9.02918 20.1392C9.26751 20.1392 9.50584 20.075 9.71668 19.9467C10.1108 19.7083 10.34 19.2867 10.34 18.8283V13.7775C10.3492 12.8975 9.86334 12.1092 9.08418 11.7242Z" fill="#4B5563"/>
<path d="M19.5433 9.10251C19.1492 8.86417 18.6725 8.83667 18.2692 9.04751L12.925 11.7242C12.1458 12.1183 11.66 12.8975 11.66 13.7775V18.8283C11.66 19.2867 11.8892 19.7083 12.2833 19.9467C12.4942 20.075 12.7325 20.1392 12.9708 20.1392C13.1725 20.1392 13.3742 20.0933 13.5575 20.0017L18.9017 17.325C19.6808 16.9308 20.1667 16.1517 20.1667 15.2717V10.2208C20.1667 9.76251 19.9375 9.35001 19.5433 9.10251Z" fill="#4B5563"/>
</svg>
