<svg width="20" height="20" viewBox="0 0 20 20" fill="none" xmlns="http://www.w3.org/2000/svg">
<path d="M18.3334 8.12501C17.9917 8.12501 17.7084 7.84167 17.7084 7.50001V5.83334C17.7084 3.68334 16.3167 2.29167 14.1667 2.29167H5.83335C3.68335 2.29167 2.29169 3.68334 2.29169 5.83334V7.50001C2.29169 7.84167 2.00835 8.12501 1.66669 8.12501C1.32502 8.12501 1.04169 7.84167 1.04169 7.50001V5.83334C1.04169 2.96667 2.96669 1.04167 5.83335 1.04167H14.1667C17.0334 1.04167 18.9584 2.96667 18.9584 5.83334V7.50001C18.9584 7.84167 18.675 8.12501 18.3334 8.12501Z" fill="#4B5563"/>
<path d="M14.1667 18.9583H5.83335C2.96669 18.9583 1.04169 17.0333 1.04169 14.1667V12.5C1.04169 12.1583 1.32502 11.875 1.66669 11.875C2.00835 11.875 2.29169 12.1583 2.29169 12.5V14.1667C2.29169 16.3167 3.68335 17.7083 5.83335 17.7083H14.1667C16.3167 17.7083 17.7084 16.3167 17.7084 14.1667V12.5C17.7084 12.1583 17.9917 11.875 18.3334 11.875C18.675 11.875 18.9584 12.1583 18.9584 12.5V14.1667C18.9584 17.0333 17.0334 18.9583 14.1667 18.9583Z" fill="#4B5563"/>
<path d="M13.6667 6.84167L10.5333 5.15C10.2 4.975 9.80834 4.975 9.47501 5.15L6.33334 6.84167C6.10834 6.96667 5.96667 7.20834 5.96667 7.475C5.96667 7.75 6.10834 7.99167 6.33334 8.11667L9.46667 9.80834C9.63334 9.9 9.81668 9.94167 10 9.94167C10.1833 9.94167 10.3667 9.9 10.5333 9.80834L13.6667 8.11667C13.8917 7.99167 14.0333 7.75 14.0333 7.475C14.0333 7.20834 13.8917 6.96667 13.6667 6.84167Z" fill="#4B5563"/>
<path d="M8.95 10.3917L6.03333 8.93334C5.80833 8.825 5.55 8.83334 5.33333 8.96667C5.125 9.1 5 9.325 5 9.575V12.3333C5 12.8083 5.26667 13.2417 5.69167 13.45L8.60833 14.9083C8.70833 14.9583 8.81667 14.9833 8.93333 14.9833C9.06667 14.9833 9.19167 14.95 9.30833 14.875C9.525 14.7417 9.65 14.5167 9.65 14.2667V11.5083C9.64167 11.0333 9.38333 10.6083 8.95 10.3917Z" fill="#4B5563"/>
<path d="M14.6583 8.96667C14.4416 8.83334 14.1833 8.825 13.9583 8.93334L11.0416 10.3917C10.6166 10.6083 10.35 11.0333 10.35 11.5083V14.2667C10.35 14.5167 10.475 14.7417 10.6916 14.875C10.8083 14.95 10.9333 14.9833 11.0666 14.9833C11.175 14.9833 11.2833 14.9583 11.3916 14.9083L14.3083 13.45C14.7333 13.2333 15 12.8083 15 12.3333V9.575C15 9.325 14.875 9.1 14.6583 8.96667Z" fill="#4B5563"/>
</svg>
