<svg width="20" height="20" viewBox="0 0 20 20" fill="none" xmlns="http://www.w3.org/2000/svg">
<g clip-path="url(#clip0_1_123)">
<path d="M7.91669 5.41667V7.91667H5.41669V5.41667H7.91669ZM9.16669 4.16667H4.16669V9.16667H9.16669V4.16667ZM7.91669 12.0833V14.5833H5.41669V12.0833H7.91669ZM9.16669 10.8333H4.16669V15.8333H9.16669V10.8333ZM14.5834 5.41667V7.91667H12.0834V5.41667H14.5834ZM15.8334 4.16667H10.8334V9.16667H15.8334V4.16667ZM10.8334 10.8333H12.0834V12.0833H10.8334V10.8333ZM12.0834 12.0833H13.3334V13.3333H12.0834V12.0833ZM13.3334 10.8333H14.5834V12.0833H13.3334V10.8333ZM10.8334 13.3333H12.0834V14.5833H10.8334V13.3333ZM12.0834 14.5833H13.3334V15.8333H12.0834V14.5833ZM13.3334 13.3333H14.5834V14.5833H13.3334V13.3333ZM14.5834 12.0833H15.8334V13.3333H14.5834V12.0833ZM14.5834 14.5833H15.8334V15.8333H14.5834V14.5833ZM17.5 5.83334C17.0417 5.83334 16.6667 5.45834 16.6667 5.00001V3.33334H15C14.5417 3.33334 14.1667 2.95834 14.1667 2.50001C14.1667 2.04167 14.5417 1.66667 15 1.66667H17.5C17.9584 1.66667 18.3334 2.04167 18.3334 2.50001V5.00001C18.3334 5.45834 17.9584 5.83334 17.5 5.83334ZM18.3334 17.5V15C18.3334 14.5417 17.9584 14.1667 17.5 14.1667C17.0417 14.1667 16.6667 14.5417 16.6667 15V16.6667H15C14.5417 16.6667 14.1667 17.0417 14.1667 17.5C14.1667 17.9583 14.5417 18.3333 15 18.3333H17.5C17.9584 18.3333 18.3334 17.9583 18.3334 17.5ZM2.50002 18.3333H5.00002C5.45835 18.3333 5.83335 17.9583 5.83335 17.5C5.83335 17.0417 5.45835 16.6667 5.00002 16.6667H3.33335V15C3.33335 14.5417 2.95835 14.1667 2.50002 14.1667C2.04169 14.1667 1.66669 14.5417 1.66669 15V17.5C1.66669 17.9583 2.04169 18.3333 2.50002 18.3333ZM1.66669 2.50001V5.00001C1.66669 5.45834 2.04169 5.83334 2.50002 5.83334C2.95835 5.83334 3.33335 5.45834 3.33335 5.00001V3.33334H5.00002C5.45835 3.33334 5.83335 2.95834 5.83335 2.50001C5.83335 2.04167 5.45835 1.66667 5.00002 1.66667H2.50002C2.04169 1.66667 1.66669 2.04167 1.66669 2.50001Z" fill="#4B5563"/>
</g>
<defs>
<clipPath id="clip0_1_123">
<rect width="20" height="20" fill="white"/>
</clipPath>
</defs>
</svg>
