<svg width="22" height="22" viewBox="0 0 22 22" fill="none" xmlns="http://www.w3.org/2000/svg">
<path d="M14.8958 20.625C15.7818 20.625 16.5 19.9068 16.5 19.0208C16.5 18.1349 15.7818 17.4167 14.8958 17.4167C14.0099 17.4167 13.2917 18.1349 13.2917 19.0208C13.2917 19.9068 14.0099 20.625 14.8958 20.625Z" fill="#4B5563"/>
<path d="M7.56251 20.625C8.44847 20.625 9.16668 19.9068 9.16668 19.0208C9.16668 18.1349 8.44847 17.4167 7.56251 17.4167C6.67655 17.4167 5.95834 18.1349 5.95834 19.0208C5.95834 19.9068 6.67655 20.625 7.56251 20.625Z" fill="#4B5563"/>
<path d="M4.43668 3.61168L4.25334 5.85751C4.21668 6.28834 4.55584 6.64584 4.98668 6.64584H19.0208C19.4058 6.64584 19.7267 6.35251 19.7542 5.96751C19.8733 4.34501 18.6358 3.02501 17.0133 3.02501H5.74751C5.65584 2.62168 5.47251 2.23668 5.18834 1.91584C4.73001 1.43001 4.08834 1.14584 3.42834 1.14584H1.83334C1.45751 1.14584 1.14584 1.45751 1.14584 1.83334C1.14584 2.20918 1.45751 2.52084 1.83334 2.52084H3.42834C3.71251 2.52084 3.97834 2.64001 4.17084 2.84168C4.36334 3.05251 4.45501 3.32751 4.43668 3.61168Z" fill="#4B5563"/>
<path d="M18.8008 8.02084H4.73917C4.35417 8.02084 4.04251 8.31418 4.00584 8.69001L3.67584 12.6775C3.54751 14.245 4.77584 15.5833 6.34334 15.5833H16.5367C17.9117 15.5833 19.1217 14.4558 19.2225 13.0808L19.525 8.80001C19.5617 8.37834 19.2317 8.02084 18.8008 8.02084Z" fill="#4B5563"/>
</svg>
