<svg width="20" height="20" viewBox="0 0 20 20" fill="none" xmlns="http://www.w3.org/2000/svg">
<path d="M11.6666 15C11.8877 15 12.0996 14.9122 12.2559 14.7559C12.4122 14.5996 12.5 14.3877 12.5 14.1667V12.5C12.5 12.279 12.4122 12.067 12.2559 11.9107C12.0996 11.7545 11.8877 11.6667 11.6666 11.6667C11.4456 11.6667 11.2337 11.7545 11.0774 11.9107C10.9211 12.067 10.8333 12.279 10.8333 12.5V14.1667C10.8333 14.3877 10.9211 14.5996 11.0774 14.7559C11.2337 14.9122 11.4456 15 11.6666 15ZM8.3333 15C8.55432 15 8.76628 14.9122 8.92256 14.7559C9.07884 14.5996 9.16664 14.3877 9.16664 14.1667V12.5C9.16664 12.279 9.07884 12.067 8.92256 11.9107C8.76628 11.7545 8.55432 11.6667 8.3333 11.6667C8.11229 11.6667 7.90033 11.7545 7.74405 11.9107C7.58777 12.067 7.49997 12.279 7.49997 12.5V14.1667C7.49997 14.3877 7.58777 14.5996 7.74405 14.7559C7.90033 14.9122 8.11229 15 8.3333 15ZM15.8333 5H14.6833L13.2416 2.125C13.1976 2.01921 13.1322 1.92365 13.0495 1.84427C12.9669 1.7649 12.8687 1.70343 12.7612 1.6637C12.6538 1.62397 12.5392 1.60684 12.4248 1.61337C12.3104 1.61991 12.1986 1.64997 12.0963 1.70167C11.9941 1.75338 11.9036 1.82563 11.8305 1.91389C11.7574 2.00216 11.7033 2.10455 11.6716 2.21466C11.6398 2.32478 11.6312 2.44025 11.6461 2.55387C11.661 2.66749 11.6992 2.77681 11.7583 2.875L12.8166 5H7.1833L8.24164 2.875C8.32252 2.68076 8.32694 2.4631 8.25399 2.26574C8.18104 2.06838 8.03613 1.90592 7.84835 1.81097C7.66058 1.71603 7.44384 1.69564 7.24165 1.75388C7.03946 1.81213 6.86679 1.94471 6.7583 2.125L5.31664 5H4.16664C3.57763 5.00896 3.0107 5.22562 2.56584 5.61178C2.12099 5.99793 1.82678 6.52877 1.73511 7.11067C1.64344 7.69258 1.7602 8.28816 2.06479 8.79238C2.36938 9.29659 2.84224 9.67706 3.39997 9.86667L4.01664 16.0833C4.07882 16.7021 4.36942 17.2756 4.8317 17.6916C5.29397 18.1076 5.89472 18.3365 6.51664 18.3333H13.5C14.1219 18.3365 14.7226 18.1076 15.1849 17.6916C15.6472 17.2756 15.9378 16.7021 16 16.0833L16.6166 9.86667C17.1756 9.6765 17.6492 9.29464 17.9536 8.78874C18.2579 8.28283 18.3734 7.68553 18.2796 7.10262C18.1858 6.51971 17.8887 5.98882 17.4409 5.60398C16.9932 5.21914 16.4237 5.00518 15.8333 5ZM14.325 15.9167C14.3042 16.1229 14.2074 16.3141 14.0533 16.4528C13.8992 16.5914 13.6989 16.6677 13.4916 16.6667H6.5083C6.301 16.6677 6.10075 16.5914 5.94666 16.4528C5.79256 16.3141 5.6957 16.1229 5.67497 15.9167L5.0833 10H14.9166L14.325 15.9167ZM15.8333 8.33333H4.16664C3.94562 8.33333 3.73366 8.24554 3.57738 8.08926C3.4211 7.93298 3.3333 7.72101 3.3333 7.5C3.3333 7.27899 3.4211 7.06703 3.57738 6.91075C3.73366 6.75447 3.94562 6.66667 4.16664 6.66667H15.8333C16.0543 6.66667 16.2663 6.75447 16.4226 6.91075C16.5788 7.06703 16.6666 7.27899 16.6666 7.5C16.6666 7.72101 16.5788 7.93298 16.4226 8.08926C16.2663 8.24554 16.0543 8.33333 15.8333 8.33333Z" fill="#4B5563"/>
</svg>
