<svg width="22" height="22" viewBox="0 0 22 22" fill="none" xmlns="http://www.w3.org/2000/svg">
<path d="M12.8333 2.67668V10.2942C12.8333 11.2292 12.0725 11.99 11.1375 11.99H2.75001C2.24584 11.99 1.83334 11.5775 1.83334 11.0733V5.21584C1.83334 3.34584 3.34584 1.83334 5.21584 1.83334H11.9808C12.4575 1.83334 12.8333 2.20918 12.8333 2.67668Z" fill="#4B5563"/>
<path d="M19.7083 14.2083C19.965 14.2083 20.1667 14.41 20.1667 14.6667V15.5833C20.1667 17.105 18.9383 18.3333 17.4167 18.3333C17.4167 16.8208 16.1792 15.5833 14.6667 15.5833C13.1542 15.5833 11.9167 16.8208 11.9167 18.3333H10.0833C10.0833 16.8208 8.84584 15.5833 7.33334 15.5833C5.82084 15.5833 4.58334 16.8208 4.58334 18.3333C3.06168 18.3333 1.83334 17.105 1.83334 15.5833V13.75C1.83334 13.2458 2.24584 12.8333 2.75001 12.8333H11.4583C12.7233 12.8333 13.75 11.8067 13.75 10.5417V5.50001C13.75 4.99584 14.1625 4.58334 14.6667 4.58334H15.4367C16.0967 4.58334 16.7017 4.94084 17.0317 5.50918L17.6183 6.53584C17.7008 6.68251 17.5908 6.87501 17.4167 6.87501C16.1517 6.87501 15.125 7.90168 15.125 9.16668V11.9167C15.125 13.1817 16.1517 14.2083 17.4167 14.2083H19.7083Z" fill="#4B5563"/>
<path d="M7.33333 20.1667C8.34586 20.1667 9.16667 19.3459 9.16667 18.3333C9.16667 17.3208 8.34586 16.5 7.33333 16.5C6.32081 16.5 5.5 17.3208 5.5 18.3333C5.5 19.3459 6.32081 20.1667 7.33333 20.1667Z" fill="#4B5563"/>
<path d="M14.6667 20.1667C15.6792 20.1667 16.5 19.3459 16.5 18.3333C16.5 17.3208 15.6792 16.5 14.6667 16.5C13.6542 16.5 12.8333 17.3208 12.8333 18.3333C12.8333 19.3459 13.6542 20.1667 14.6667 20.1667Z" fill="#4B5563"/>
<path d="M20.1667 11.4858V12.8333H17.4167C16.9125 12.8333 16.5 12.4208 16.5 11.9167V9.16667C16.5 8.6625 16.9125 8.25 17.4167 8.25H18.5992L19.9283 10.5783C20.0842 10.8533 20.1667 11.165 20.1667 11.4858Z" fill="#4B5563"/>
</svg>
